<svg width="27" height="14" viewBox="0 0 27 14" fill="none" xmlns="http://www.w3.org/2000/svg">
<path d="M22.5087 4.33826H20.4951C19.8222 3.35026 18.9269 2.52435 17.8839 1.93531C16.7159 1.27571 15.3896 0.927124 14.0484 0.927124H13.4801C13.0679 0.927124 12.7338 1.26126 12.7338 1.67343V4.33826H4.45152C2.63305 4.33826 1.12616 5.6939 0.885862 7.44741C0.883165 7.46435 0.880853 7.48128 0.879311 7.49867C0.861775 7.643 0.851562 7.78942 0.851562 7.93837V10.7921C0.851562 11.2042 1.1857 11.5383 1.59787 11.5383H4.20911C4.54113 12.8209 5.70829 13.7708 7.0932 13.7708C8.47811 13.7708 9.64528 12.8209 9.97727 11.5383H16.983C17.3152 12.8209 18.4822 13.7708 19.8671 13.7708C21.252 13.7708 22.4189 12.8209 22.7511 11.5383H25.3624C25.7746 11.5383 26.1087 11.2042 26.1087 10.7921V7.93837C26.1087 5.95323 24.4937 4.33826 22.5087 4.33826ZM14.2265 2.42243C15.8759 2.46967 17.4405 3.17316 18.5752 4.33826H14.2265V2.42243ZM2.34419 8.30875H3.49691C3.90908 8.30875 4.24322 7.97462 4.24322 7.56241C4.24322 7.15027 3.90908 6.81613 3.49691 6.81613H2.66927C3.04291 6.22474 3.70194 5.83103 4.45152 5.83103H12.7338V10.0457H9.97727C9.64506 8.76316 8.47811 7.81312 7.0932 7.81312C5.70829 7.81312 4.54132 8.76316 4.20911 10.0457H2.34419V8.30875ZM8.57928 10.7921C8.57928 11.6116 7.91272 12.2781 7.0932 12.2781C6.27366 12.2781 5.60713 11.6116 5.60713 10.7921C5.60713 9.97253 6.27366 9.30597 7.0932 9.30597C7.91272 9.30597 8.57928 9.97253 8.57928 10.7921ZM21.3532 10.7921C21.3532 11.6116 20.6866 12.2781 19.8671 12.2781C19.0476 12.2781 18.381 11.6116 18.381 10.7921C18.381 9.97253 19.0476 9.30597 19.8671 9.30597C20.6866 9.30597 21.3532 9.97253 21.3532 10.7921ZM22.7511 10.0457C22.4192 8.76316 21.252 7.81312 19.8671 7.81312C18.4822 7.81312 17.315 8.76316 16.983 10.0457H14.2265V5.83103H22.5087C23.2451 5.83103 23.8942 6.21107 24.2712 6.78493H23.1161C22.704 6.78493 22.3698 7.11907 22.3698 7.53121C22.3698 7.94342 22.704 8.2777 23.1161 8.2777H24.6161V10.0457H22.7511Z" fill="white"/>
</svg>
