<svg width="110" height="111" viewBox="0 0 110 111" fill="none" xmlns="http://www.w3.org/2000/svg">
<g clip-path="url(#clip0_113_1891)">
<g clip-path="url(#clip1_113_1891)">
<path d="M17.1875 84.5077V26.0525C17.1875 14.1919 26.779 4.57694 38.6109 4.57694H25.5664C13.7008 4.57694 4.08203 14.1957 4.08203 26.0613V84.4989C4.08203 96.3642 13.7008 105.983 25.5664 105.983H38.6109C26.779 105.983 17.1875 96.3683 17.1875 84.5077Z" fill="#CEE1F2"/>
<path d="M72.4023 104.786C70.1826 105.561 67.7967 105.983 65.3125 105.983H25.7812C13.9156 105.983 4.29688 96.3642 4.29688 84.4989V26.0613C4.29688 14.1957 13.9156 4.57694 25.7812 4.57694H65.3125C77.1779 4.57694 86.7969 14.1957 86.7969 26.0613V48.6199M54.7852 82.5653H71.1133M21.4844 82.3504L25.4341 86.4415C27.1343 88.1482 29.8912 88.1482 31.5915 86.4415L39.7461 78.0535" stroke="#405FF2" stroke-width="5" stroke-miterlimit="10" stroke-linecap="round" stroke-linejoin="round"/>
<path d="M105.047 70.343C100.32 68.5048 97.1951 68.2423 94.8535 68.2423C90.5029 68.2423 87.0117 71.7691 87.0117 76.1199C87.0117 80.4707 90.9148 83.9976 96.6917 83.9976C101.681 83.9976 105.703 87.5245 105.703 91.8753C105.703 96.2259 101.961 99.753 97.6106 99.753C95.5763 99.753 91.0458 99.0925 86.582 97.3181M96.6797 68.2423V61.2957M96.6797 99.7528V105.983M57.793 58.0731V59.7918M34.1602 58.0731V59.7918" stroke="#FF5CF4" stroke-width="5" stroke-miterlimit="10" stroke-linecap="round" stroke-linejoin="round"/>
<path d="M68.5352 37.0184H68.1835C68.1734 36.9947 68.1661 36.9703 68.1557 36.9468L64.3038 28.4004C64.3002 28.3924 64.2967 28.3847 64.2931 28.3767C62.5023 24.4668 58.9291 21.6018 54.734 20.713C52.2427 20.1854 49.1996 19.8309 45.8829 19.8309C42.6308 19.8309 39.6816 20.1729 37.2649 20.6821C33.0507 21.5703 29.4639 24.4378 27.6706 28.3529C27.6669 28.3608 27.6635 28.3688 27.6598 28.3767L23.7974 36.9466C23.7869 36.97 23.7798 36.9945 23.7697 37.0182H23.418C21.0448 37.0182 19.1211 38.9419 19.1211 41.315C19.1211 43.6882 21.0448 45.6119 23.418 45.6119V49.5831C23.418 55.0938 27.8339 59.577 33.2617 59.577H58.6912C64.1193 59.577 68.5352 55.0938 68.5352 49.5833V45.6121C70.9083 45.6121 72.832 43.6884 72.832 41.3153C72.832 38.9421 70.9083 37.0184 68.5352 37.0184ZM35.4885 31.9216C36.1541 30.477 37.4799 29.4194 39.0369 29.0913C40.6093 28.76 42.9015 28.4246 45.8831 28.4246C48.9326 28.4246 51.3212 28.7746 52.953 29.1203C54.4951 29.4471 55.811 30.5028 56.4755 31.9455L58.7617 37.0184H33.1914L35.4885 31.9216ZM35.0195 53.3465C32.1718 53.3465 29.8633 51.038 29.8633 48.1903C29.8633 45.3425 32.1718 43.034 35.0195 43.034C37.8673 43.034 40.1758 45.3425 40.1758 48.1903C40.1758 51.038 37.8673 53.3465 35.0195 53.3465ZM56.9336 53.3465C54.0858 53.3465 51.7773 51.038 51.7773 48.1903C51.7773 45.3425 54.0858 43.034 56.9336 43.034C59.7813 43.034 62.0898 45.3425 62.0898 48.1903C62.0898 51.038 59.7813 53.3465 56.9336 53.3465Z" fill="#FF5CF4"/>
</g>
</g>
<defs>
<clipPath id="clip0_113_1891">
<rect width="110" height="110" fill="white" transform="translate(0 0.28006)"/>
</clipPath>
<clipPath id="clip1_113_1891">
<rect width="110" height="110" fill="white" transform="translate(0 0.28006)"/>
</clipPath>
</defs>
</svg>
