<svg width="110" height="111" viewBox="0 0 110 111" fill="none" xmlns="http://www.w3.org/2000/svg">
<g clip-path="url(#clip0_113_1875)">
<path d="M43.1686 15.1043C36.3829 15.1043 30.2324 19.0968 27.4699 25.2946L16.292 50.3731C9.59104 50.8335 4.29688 56.4115 4.29688 63.2293V76.1199C4.29688 82.0526 9.10636 86.8621 15.0391 86.8621H17.9835C17.9994 86.0354 18.0204 85.2089 18.0469 84.3824C17.3476 82.9569 16.9533 81.3546 16.9533 79.6597L16.7578 72.0379C16.7578 66.4013 17.9046 61.2242 22.0885 60.3813C24.0773 59.9807 25.7424 58.6257 26.5573 56.7677L40.3605 25.2946C43.1228 19.0968 49.2733 15.1043 56.0592 15.1043H43.1686Z" fill="#CEE1F2"/>
<path d="M94.9609 86.8621C100.894 86.8621 105.703 82.0526 105.703 76.1199V63.2293C105.703 56.11 99.9318 50.3387 92.8125 50.3387L79.5736 24.5306C76.6474 18.7489 70.7184 15.1043 64.2383 15.1043H43.1686C36.3829 15.1043 30.2324 19.0968 27.4699 25.2946L16.292 50.3731C9.59104 50.8335 4.29688 56.4115 4.29688 63.2293V76.1199C4.29688 82.0526 9.10636 86.8621 15.0391 86.8621" stroke="#405FF2" stroke-width="5" stroke-miterlimit="10" stroke-linecap="round" stroke-linejoin="round"/>
<path d="M38.0268 95.4559C42.773 95.4559 46.6206 91.6083 46.6206 86.8621C46.6206 82.1159 42.773 78.2684 38.0268 78.2684C33.2806 78.2684 29.4331 82.1159 29.4331 86.8621C29.4331 91.6083 33.2806 95.4559 38.0268 95.4559Z" stroke="#405FF2" stroke-width="5" stroke-miterlimit="10" stroke-linecap="round" stroke-linejoin="round"/>
<path d="M63.1641 86.8621H49.8433" stroke="#405FF2" stroke-width="5" stroke-miterlimit="10" stroke-linecap="round" stroke-linejoin="round"/>
<path d="M71.9727 95.4559C76.7189 95.4559 80.5664 91.6083 80.5664 86.8621C80.5664 82.1159 76.7189 78.2684 71.9727 78.2684C67.2265 78.2684 63.3789 82.1159 63.3789 86.8621C63.3789 91.6083 67.2265 95.4559 71.9727 95.4559Z" stroke="#405FF2" stroke-width="5" stroke-miterlimit="10" stroke-linecap="round" stroke-linejoin="round"/>
<path d="M51.561 67.0965L63.5306 55.49C65.9364 53.1388 64.2731 49.0513 60.9103 49.0513H49.9477C46.5788 49.0513 44.9184 44.9506 47.3369 42.6035L59.733 30.5731" stroke="#FF5CF3" stroke-width="5" stroke-miterlimit="10" stroke-linecap="round" stroke-linejoin="round"/>
</g>
<defs>
<clipPath id="clip0_113_1875">
<rect width="110" height="110" fill="white" transform="translate(0 0.28006)"/>
</clipPath>
</defs>
</svg>
