<svg width="24" height="15" viewBox="0 0 24 15" fill="none" xmlns="http://www.w3.org/2000/svg">
<path d="M19.2524 4.90245H18.3018C18.1949 4.90314 18.0889 4.88265 17.9899 4.84219C17.8909 4.80174 17.8009 4.74217 17.7249 4.66685L15.5637 2.50563C15.0307 1.97263 14.3971 1.55091 13.6997 1.26498C13.0022 0.97903 12.2549 0.834569 11.5012 0.839991H4.62744C3.55 0.839991 2.51668 1.268 1.75482 2.02983C0.992955 2.79171 0.564941 3.82506 0.564941 4.90245V8.96495C0.564941 9.61144 0.821753 10.2315 1.27887 10.6886C1.73599 11.1457 2.35597 11.4025 3.00244 11.4025C3.00244 12.1567 3.30205 12.88 3.83536 13.4133C4.36867 13.9466 5.09199 14.2462 5.84619 14.2462C6.60038 14.2462 7.32372 13.9466 7.85702 13.4133C8.39033 12.88 8.68994 12.1567 8.68994 11.4025H14.4587C14.5485 12.0823 14.8824 12.7063 15.398 13.1583C15.9137 13.6103 16.576 13.8595 17.2618 13.8595C17.9475 13.8595 18.6099 13.6103 19.1256 13.1583C19.6413 12.7063 19.9751 12.0823 20.0649 11.4025H20.8774C21.5239 11.4025 22.1439 11.1457 22.601 10.6886C23.0582 10.2315 23.3149 9.61144 23.3149 8.96495C23.3149 7.88756 22.8869 6.85421 22.1251 6.09233C21.3632 5.33053 20.3299 4.90245 19.2524 4.90245ZM11.5418 2.46495C12.0757 2.46403 12.6045 2.56834 13.098 2.77183C13.5916 2.97539 14.0401 3.27424 14.418 3.65124L15.6693 4.90245H5.63494C5.48352 4.90352 5.33482 4.86223 5.20561 4.78331C5.0764 4.70432 4.97183 4.59083 4.90369 4.45563L3.96119 2.57063C4.17668 2.50204 4.4013 2.46641 4.62744 2.46495H11.5418ZM2.18994 8.96495V4.90245C2.19038 4.40906 2.34054 3.92745 2.62057 3.52124L3.43307 5.14624C3.63238 5.56079 3.9449 5.91041 4.33453 6.15481C4.72416 6.39929 5.17499 6.52845 5.63494 6.52745H10.3149V9.77745H8.40555C8.17736 9.29148 7.81542 8.88045 7.36218 8.59262C6.90894 8.30471 6.38313 8.15184 5.84619 8.15184C5.30925 8.15184 4.78341 8.30471 4.33017 8.59262C3.87694 8.88045 3.51504 9.29148 3.28681 9.77745H3.00244C2.78695 9.77745 2.58029 9.69188 2.42792 9.53955C2.27554 9.38715 2.18994 9.18045 2.18994 8.96495ZM5.84619 12.215C5.60515 12.215 5.36951 12.1435 5.16909 12.0096C4.96867 11.8757 4.81245 11.6853 4.72022 11.4626C4.62797 11.24 4.60384 10.9949 4.65086 10.7585C4.69789 10.522 4.81396 10.3049 4.98441 10.1344C5.15485 9.96404 5.37201 9.84796 5.60842 9.80093C5.84484 9.7539 6.08989 9.77799 6.31259 9.87029C6.53528 9.96251 6.72564 10.1187 6.85954 10.3192C6.99344 10.5195 7.06494 10.7552 7.06494 10.9962C7.06494 11.3195 6.93655 11.6295 6.70798 11.858C6.47942 12.0866 6.16943 12.215 5.84619 12.215ZM17.2212 12.215C16.9801 12.215 16.7445 12.1435 16.5441 12.0096C16.3437 11.8757 16.1874 11.6853 16.0952 11.4626C16.003 11.24 15.9788 10.9949 16.0258 10.7585C16.0729 10.522 16.189 10.3049 16.3594 10.1344C16.5299 9.96404 16.747 9.84796 16.9834 9.80093C17.2199 9.7539 17.4649 9.77799 17.6876 9.87029C17.9103 9.96251 18.1006 10.1187 18.2345 10.3192C18.3684 10.5195 18.4399 10.7552 18.4399 10.9962C18.4399 11.3195 18.3115 11.6295 18.083 11.858C17.8544 12.0866 17.5444 12.215 17.2212 12.215ZM20.8774 9.77745H19.7805C19.5524 9.29148 19.1904 8.88045 18.7372 8.59262C18.2839 8.30471 17.7581 8.15184 17.2212 8.15184C16.6843 8.15184 16.1584 8.30471 15.7052 8.59262C15.252 8.88045 14.89 9.29148 14.6618 9.77745H11.9399V6.52745H19.2524C19.5932 6.52929 19.9297 6.60255 20.2404 6.74249C20.5511 6.88251 20.829 7.08599 21.0562 7.33995H20.8774C20.6619 7.33995 20.4553 7.4256 20.3029 7.57793C20.1505 7.73034 20.0649 7.93704 20.0649 8.15245C20.0649 8.36795 20.1505 8.57465 20.3029 8.72705C20.4553 8.87938 20.6619 8.96495 20.8774 8.96495H21.6899C21.6899 9.18045 21.6044 9.38715 21.452 9.53955C21.2996 9.69188 21.0929 9.77745 20.8774 9.77745Z" fill="white"/>
</svg>
