<svg width="26" height="13" viewBox="0 0 26 13" fill="none" xmlns="http://www.w3.org/2000/svg">
<path d="M22.9213 5.29066L18.5613 4.56362C18.3064 4.14955 17.7996 3.40053 17.0628 2.6501C15.5921 1.15227 13.8988 0.360596 12.1659 0.360596H5.06563C3.9123 0.360596 2.84296 0.98418 2.27492 1.98799L0.31833 5.44584C0.315173 5.45141 0.312806 5.45721 0.309796 5.46285C0.158451 5.7337 0.0717773 6.0454 0.0717773 6.37716V10.0208C0.0717773 10.4294 0.40308 10.7607 0.81173 10.7607H3.18161C3.52944 11.6708 4.41601 12.3196 5.45258 12.3196C6.48916 12.3196 7.3757 11.6708 7.72358 10.7607H16.9138C17.2616 11.6708 18.1482 12.3196 19.1847 12.3196C20.2213 12.3196 21.1079 11.6708 21.4557 10.7607H24.589C24.9976 10.7607 25.3289 10.4294 25.3289 10.0208V8.06189C25.3289 6.67378 24.2946 5.48447 22.9213 5.29066ZM16.71 4.49647H11.3795V1.84053H12.1659C14.2633 1.84053 15.8473 3.3911 16.71 4.49647ZM6.44082 1.84053H9.8997V4.49647H6.44082V1.84053ZM3.56294 2.71681C3.85152 2.20683 4.38044 1.87946 4.96091 1.8441V4.49647H2.55591L3.56294 2.71681ZM5.45258 10.8397C4.92954 10.8397 4.50401 10.4213 4.50401 9.90699C4.50401 9.39271 4.92954 8.97426 5.45258 8.97426C5.97563 8.97426 6.40116 9.39271 6.40116 9.90699C6.40116 10.4213 5.97563 10.8397 5.45258 10.8397ZM19.1847 10.8397C18.6616 10.8397 18.2361 10.4213 18.2361 9.90699C18.2361 9.39271 18.6617 8.97426 19.1847 8.97426C19.7078 8.97426 20.1333 9.39271 20.1333 9.90699C20.1333 10.4213 19.7078 10.8397 19.1847 10.8397ZM21.5297 9.28076C21.2515 8.25317 20.3058 7.49434 19.1847 7.49434C18.0636 7.49434 17.118 8.25317 16.8396 9.28076H7.79757C7.51929 8.25317 6.57366 7.49434 5.45258 7.49434C4.33151 7.49434 3.38589 8.25317 3.10751 9.28076H1.55169V6.37716C1.55169 6.15616 1.73145 5.97639 1.95245 5.97639H18.0363L22.6877 6.75208C22.6948 6.75327 22.702 6.75438 22.7092 6.75535C22.835 6.77258 22.9547 6.80772 23.0663 6.85764C22.7567 6.94619 22.5298 7.23063 22.5298 7.56863C22.5298 7.97727 22.8611 8.30859 23.2698 8.30859H23.849V9.28084L21.5297 9.28076Z" fill="white"/>
</svg>
