<svg width="27" height="18" viewBox="0 0 27 18" fill="none" xmlns="http://www.w3.org/2000/svg">
<path d="M25.2923 12.7314H24.4445V8.49229C24.4445 7.08974 23.3035 5.9488 21.901 5.9488H19.1208L18.0049 2.60092C17.658 1.56072 16.6883 0.861816 15.5919 0.861816C15.4598 0.861816 6.29396 0.861816 6.07489 0.861816C4.96958 0.861816 4.02724 1.57067 3.67725 2.55745H2.68362C1.28114 2.55745 0.140137 3.69845 0.140137 5.10089V8.49229C0.140137 9.89476 1.28114 11.0357 2.68362 11.0357H3.53146V12.7314H2.68362C2.21541 12.7314 1.83577 13.111 1.83577 13.5792C1.83577 14.0475 2.21537 14.4271 2.68362 14.4271C3.47763 14.4271 4.43044 14.4271 5.2271 14.4271C5.2271 16.297 6.74845 17.8184 8.61843 17.8184C10.4884 17.8184 12.0097 16.297 12.0097 14.4271H15.9663C15.9663 16.297 17.4876 17.8184 19.3576 17.8184C21.2276 17.8184 22.7489 16.297 22.7489 14.4271C23.5458 14.4271 24.4989 14.4271 25.2924 14.4271C25.7606 14.4271 26.1402 14.0475 26.1402 13.5792C26.1402 13.111 25.7605 12.7314 25.2923 12.7314ZM3.53146 9.34004H2.68362C2.21612 9.34004 1.83577 8.95968 1.83577 8.49221V5.10089C1.83577 4.63335 2.21612 4.25307 2.68362 4.25307H3.53146C3.53146 4.79325 3.53146 8.81622 3.53146 9.34004ZM12.0097 2.55745H13.4228H15.5919C15.9574 2.55745 16.2806 2.79044 16.3962 3.13711L17.3333 5.94872H12.0097V2.55745ZM5.2271 3.40524C5.2271 2.93775 5.60745 2.5574 6.07494 2.5574H10.3141V5.94872H5.2271V3.40524ZM8.61843 16.1227C7.68344 16.1227 6.92279 15.362 6.92279 14.427C6.92279 13.492 7.68344 12.7314 8.61843 12.7314C9.55344 12.7314 10.3141 13.492 10.3141 14.427C10.3141 15.362 9.55344 16.1227 8.61843 16.1227ZM19.3575 16.1227C18.4226 16.1227 17.6619 15.362 17.6619 14.427C17.6619 13.492 18.4226 12.7314 19.3575 12.7314C20.2925 12.7314 21.0532 13.492 21.0532 14.427C21.0532 15.362 20.2925 16.1227 19.3575 16.1227ZM22.7488 12.7314H22.2926C21.7052 11.7187 20.61 11.0357 19.3575 11.0357C18.1051 11.0357 17.0099 11.7187 16.4225 12.7314H11.5534C10.9662 11.7187 9.87087 11.0357 8.61843 11.0357C7.36595 11.0357 6.2707 11.7187 5.68337 12.7314H5.22715V10.1879V7.64438C6.60972 7.64438 20.9932 7.64438 21.9011 7.64438C22.3685 7.64438 22.7489 8.02475 22.7489 8.49229L22.7488 12.7314Z" fill="white"/>
</svg>
